<?xml version="1.0" encoding="UTF-8"?>
<svg version="1.1" xmlns="http://www.w3.org/2000/svg" width="112" height="107">
<path d="M0 0 C36.96 0 73.92 0 112 0 C112 35.31 112 70.62 112 107 C75.04 107 38.08 107 0 107 C0 71.69 0 36.38 0 0 Z " fill="#333840" transform="translate(0,0)"/>
<path d="M0 0 C3.625 0.25 3.625 0.25 5.5625 1.25 C7.28386567 4.49021772 7.15460415 7.66957756 6.625 11.25 C5.5625 13.25 5.5625 13.25 3.625 14.25 C-2.45680536 14.901622 -2.45680536 14.901622 -5.3125 12.875 C-6.375 11.25 -6.375 11.25 -6.375 9.25 C-17.69221214 13.40119052 -25.91333509 17.58325155 -31.59765625 28.625 C-33.20339051 32.12423452 -34.51982051 35.49059709 -35.375 39.25 C-36.035 39.25 -36.695 39.25 -37.375 39.25 C-36.85761797 29.76466279 -32.41561708 21.64637761 -25.375 15.25 C-20.8373101 12.00879293 -16.23691358 9.43445217 -10.9375 7.6875 C-6.98775507 6.09374327 -6.0763895 5.05310594 -4.375 1.25 C-3.375 0.25 -3.375 0.25 0 0 Z " fill="#A2A3A6" transform="translate(55.375,9.75)"/>
<path d="M0 0 C7.79996953 2.59998984 12.334517 9.25258144 15.9375 16.375 C18.83773541 22.56872309 19.28665005 28.09223804 19.51757812 34.83984375 C19.69412377 38.6838753 19.82251436 40.73377153 22 44 C22.46155369 47.61550392 22.45406883 49.33636094 20.375 52.375 C17.28813568 54.48706506 15.6717087 54.61195145 12 54 C9.5625 52.4375 9.5625 52.4375 8 50 C8.06233233 46.44705702 8.30034709 44.03282096 10.3125 41.0625 C12 40 12 40 16 40 C16.37000832 29.00253039 15.29740384 19.34114903 9 10 C6.70218567 7.69061949 4.3408106 5.62204825 1.79296875 3.59375 C1.20128906 3.0678125 0.60960938 2.541875 0 2 C0 1.34 0 0.68 0 0 Z " fill="#989A9C" transform="translate(75,22)"/>
<path d="M0 0 C2.375 1.625 2.375 1.625 4 4 C4.34266733 7.22107288 4.22707604 9.40960229 3.0625 12.4375 C2.98562806 15.58924961 3.56430819 16.12871507 5.625 18.4375 C15.77582445 27.56924561 26.96392455 28.96877587 40 29 C37.19411938 31.80588062 35.35394546 31.29982542 31.4375 31.3125 C19.58266351 31.10685488 10.98356605 26.95502586 2.4375 18.75 C0 16 0 16 0 14 C-1.093125 14.0825 -2.18625 14.165 -3.3125 14.25 C-7 14 -7 14 -8.9375 12.375 C-10.31565201 9.29442492 -10.48746608 7.34262452 -10 4 C-7.21921757 -0.06422047 -4.81255755 -0.80209293 0 0 Z " fill="#8B8C8F" transform="translate(24,62)"/>
<path d="M0 0 C3.5625 0.3125 3.5625 0.3125 5.5 1.3125 C7.22136567 4.55271772 7.09210415 7.73207756 6.5625 11.3125 C5.5 13.3125 5.5 13.3125 3.5625 14.3125 C-0.125 14.5 -0.125 14.5 -3.4375 14.3125 C-3.5625 7.5625 -3.5625 7.5625 -2.4375 5.3125 C-3.27083333 3.14583333 -3.27083333 3.14583333 -5.4375 2.3125 C-3.4375 0.3125 -3.4375 0.3125 0 0 Z " fill="#6E6F72" transform="translate(55.4375,9.6875)"/>
<path d="M0 0 C-0.66 0.66 -1.32 1.32 -2 2 C-2 4.00792058 -1.99588753 6.01636601 -1.9375 8.0234375 C-2.01338636 10.42334374 -2.67354148 12.01031222 -4 14 C-5.875 13.6875 -5.875 13.6875 -8 13 C-10.32749345 9.50875983 -10.50299316 8.10777749 -10 4 C-7.16463433 -0.14399597 -4.86205069 -0.44200461 0 0 Z " fill="#777879" transform="translate(24,62)"/>
<path d="M0 0 C1.65 0 3.3 0 5 0 C5 4.29 5 8.58 5 13 C0 12 0 12 -1.875 10.875 C-3.71002135 7.81663109 -2.79038061 5.34391796 -2 2 C-1.34 1.34 -0.68 0.68 0 0 Z " fill="#C7C9CC" transform="translate(86,63)"/>
<path d="M0 0 C3.62693373 0.68920356 6.444496 2.27261246 9.6875 4 C17.64956287 7.79059485 25.29330641 7.97914564 34 8 C31.19411938 10.80588062 29.35394546 10.29982542 25.4375 10.3125 C15.19045944 10.13474521 8.05640882 7.36132517 0 1 C0 0.67 0 0.34 0 0 Z " fill="#B7BCC2" transform="translate(30,83)"/>
<path d="M0 0 C7.25800283 2.39829659 11.936854 8.6064581 15.5 15.1875 C17.02648521 18.52836017 17.3694782 21.305218 17 25 C15.100377 22.1505655 13.83769117 19.42802507 12.4375 16.3125 C9.72086178 10.75114384 6.60391893 7.31395639 1.7578125 3.5234375 C1.17773438 3.02070313 0.59765625 2.51796875 0 2 C0 1.34 0 0.68 0 0 Z " fill="#B3B6BD" transform="translate(75,22)"/>
<path d="M0 0 C0.8125 1.625 0.8125 1.625 1 4 C-0.16624539 5.43281577 -1.34383241 6.85863826 -2.58984375 8.22265625 C-5.93833026 12.44304784 -7.82034384 17.78591979 -9 23 C-9.66 23 -10.32 23 -11 23 C-10.48395099 13.53910149 -6.22272099 6.9338891 0 0 Z " fill="#6C6F74" transform="translate(29,26)"/>
<path d="M0 0 C1.4540625 0.0309375 1.4540625 0.0309375 2.9375 0.0625 C2.96458567 1.66657328 2.98393483 3.2707785 3 4.875 C3.01160156 5.76832031 3.02320313 6.66164063 3.03515625 7.58203125 C2.9375 10.0625 2.9375 10.0625 1.9375 13.0625 C0.6175 13.0625 -0.7025 13.0625 -2.0625 13.0625 C-2.1875 6.3125 -2.1875 6.3125 -1.0625 4.0625 C-1.89583333 1.89583333 -1.89583333 1.89583333 -4.0625 1.0625 C-3.0625 0.0625 -3.0625 0.0625 0 0 Z " fill="#8F9091" transform="translate(54.0625,10.9375)"/>
<path d="M0 0 C2.03120707 3.04681061 2.24659875 3.60118324 2.1953125 7.01171875 C2.18886719 7.76904297 2.18242188 8.52636719 2.17578125 9.30664062 C2.15902344 10.09232422 2.14226562 10.87800781 2.125 11.6875 C2.11597656 12.48478516 2.10695313 13.28207031 2.09765625 14.10351562 C2.07411585 16.069139 2.03824547 18.03460775 2 20 C1.01 19.67 0.02 19.34 -1 19 C-1.02705308 16.58325776 -1.04686438 14.1668206 -1.0625 11.75 C-1.07087891 11.06808594 -1.07925781 10.38617188 -1.08789062 9.68359375 C-1.10428392 6.30657446 -1.05628768 3.22708361 0 0 Z " fill="#81858A" transform="translate(92,43)"/>
<path d="M0 0 C-2.08093563 2.08093563 -3.50572033 2.75797645 -6.1875 3.875 C-10.32130313 5.65427448 -14.13547813 7.69773165 -18 10 C-18 9.01 -18 8.02 -18 7 C-15.8828125 5.4296875 -15.8828125 5.4296875 -13.125 3.875 C-12.22007813 3.35679688 -11.31515625 2.83859375 -10.3828125 2.3046875 C-6.57161634 0.21790141 -4.3823001 -0.09526739 0 0 Z " fill="#C8CCD2" transform="translate(48,18)"/>
<path d="M0 0 C0.66 0.33 1.32 0.66 2 1 C1.67 1.66 1.34 2.32 1 3 C-0.28687011 6.86061033 -0.13757618 9.94150283 0 14 C-2.7822335 11.73943528 -3.90092877 10.5944274 -4.5 7 C-3.90092877 3.4055726 -2.7822335 2.26056472 0 0 Z " fill="#686B6E" transform="translate(18,62)"/>
<path d="M0 0 C-6.89715536 4.07877462 -6.89715536 4.07877462 -11.5 3.75 C-12.325 3.5025 -13.15 3.255 -14 3 C-9.30516132 0.47200994 -5.26738261 -1.6006486 0 0 Z " fill="#72757C" transform="translate(75,88)"/>
<path d="M0 0 C3 3 3 3 3.375 6 C3 9 3 9 0 12 C0 8.04 0 4.08 0 0 Z " fill="#727477" transform="translate(94,63)"/>
<path d="M0 0 C0.99 0.33 1.98 0.66 3 1 C2.67 1.66 2.34 2.32 2 3 C2.27942455 4.67654729 2.60828247 6.34608154 3 8 C1.68 8.33 0.36 8.66 -1 9 C-1 8.01 -1 7.02 -1 6 C-1.0309375 4.700625 -1.0309375 4.700625 -1.0625 3.375 C-1 1 -1 1 0 0 Z " fill="#7D7E7F" transform="translate(57,15)"/>
<path d="M0 0 C5.01113235 1.4317521 6.94469549 3.98445693 10 8 C6.45595664 8 5.89732095 7.39010515 3.3125 5.125 C2.68988281 4.59132813 2.06726563 4.05765625 1.42578125 3.5078125 C0 2 0 2 0 0 Z " fill="#92979E" transform="translate(75,22)"/>
<path d="M0 0 C0.33 1.32 0.66 2.64 1 4 C0.01 4.33 -0.98 4.66 -2 5 C-2.66 4.34 -3.32 3.68 -4 3 C-2.68 2.01 -1.36 1.02 0 0 Z M-6 4 C-5.34 4 -4.68 4 -4 4 C-4.33 5.32 -4.66 6.64 -5 8 C-5.66 8 -6.32 8 -7 8 C-6.67 6.68 -6.34 5.36 -6 4 Z " fill="#3B3F46" transform="translate(37,23)"/>
<path d="M0 0 C3.66881155 0.70554068 6.70450534 2.27735506 10 4 C9.01 4.66 8.02 5.32 7 6 C5.83054208 5.19152271 4.66449539 4.37810888 3.5 3.5625 C2.8503125 3.11003906 2.200625 2.65757813 1.53125 2.19140625 C1.0259375 1.79824219 0.520625 1.40507813 0 1 C0 0.67 0 0.34 0 0 Z " fill="#A4A9AF" transform="translate(30,83)"/>
<path d="M0 0 C0.33 1.32 0.66 2.64 1 4 C-0.65 5.32 -2.3 6.64 -4 8 C-3.50168276 4.31245243 -2.89932357 2.39509338 0 0 Z " fill="#878C90" transform="translate(29,26)"/>
<path d="M0 0 C0.33 0.99 0.66 1.98 1 3 C-1.31 4.32 -3.62 5.64 -6 7 C-6 6.01 -6 5.02 -6 4 C-3 1.8125 -3 1.8125 0 0 Z " fill="#ADB0B6" transform="translate(36,21)"/>
<path d="M0 0 C2.7972908 2.06756277 3.02692273 3.14440371 3.6875 6.6875 C3.790625 7.780625 3.89375 8.87375 4 10 C2 8.375 2 8.375 0 6 C-0.25 2.75 -0.25 2.75 0 0 Z " fill="#5D6064" transform="translate(14,66)"/>
</svg>
