<?xml version="1.0" standalone="no"?>
<!DOCTYPE svg PUBLIC "-//W3C//DTD SVG 20010904//EN"
 "http://www.w3.org/TR/2001/REC-SVG-20010904/DTD/svg10.dtd">
<svg version="1.0" xmlns="http://www.w3.org/2000/svg"
 width="241.000000pt" height="70.000000pt" viewBox="0 0 241.000000 70.000000"
 preserveAspectRatio="xMidYMid meet">

<g transform="translate(0.000000,70.000000) scale(0.100000,-0.100000)"
fill="#000000" stroke="none">
<path d="M0 350 l0 -350 1205 0 1205 0 0 350 0 350 -1205 0 -1205 0 0 -350z
m960 165 l0 -74 25 23 c34 31 69 39 110 26 57 -19 70 -50 70 -170 0 -98 -1
-105 -20 -105 -18 0 -20 8 -25 102 -6 116 -17 137 -72 135 -24 -1 -41 -10 -60
-32 -26 -28 -28 -36 -28 -120 0 -83 -1 -90 -20 -90 -19 0 -20 7 -20 190 0 183
1 190 20 190 18 0 20 -7 20 -75z m1010 -116 l0 -190 -22 3 c-23 3 -23 5 -26
191 l-2 187 25 0 25 0 0 -191z m-150 126 c0 -32 2 -35 30 -35 23 0 30 -4 30
-20 0 -16 -7 -20 -30 -20 l-31 0 3 -97 3 -98 28 2 c24 2 28 -2 25 -20 -2 -18
-9 -22 -43 -22 -54 0 -65 24 -65 143 0 75 -3 92 -15 92 -8 0 -15 9 -15 20 0
11 7 20 15 20 10 0 15 10 15 28 0 33 7 42 32 42 14 0 18 -8 18 -35z m-1459 13
c0 -7 2 -21 4 -30 4 -20 -24 -25 -42 -7 -14 14 -45 4 -86 -29 l-32 -26 23 26
c13 15 38 32 55 39 18 7 36 19 40 26 10 17 37 17 38 1z m459 -60 c40 -28 47
-44 22 -50 -12 -4 -26 2 -36 14 -20 23 -54 20 -70 -4 -16 -25 2 -49 49 -65 83
-29 109 -89 60 -138 -45 -45 -135 -31 -165 25 -16 30 15 38 44 11 27 -25 81
-28 94 -5 17 30 1 52 -54 75 -83 33 -108 84 -61 126 42 39 72 41 117 11z m587
2 c139 -63 93 -270 -60 -270 -29 0 -54 8 -79 25 -92 62 -69 224 37 254 45 13
56 12 102 -9z m293 -4 c0 -19 -7 -25 -34 -30 -57 -11 -70 -36 -76 -139 -5 -86
-6 -92 -27 -95 -23 -3 -23 -3 -23 137 0 136 1 141 21 141 13 0 23 -8 26 -20 5
-19 7 -19 22 -6 18 16 58 34 79 35 6 1 12 -10 12 -23z m376 -26 c9 -22 30 -69
48 -106 l31 -66 46 103 c36 82 50 105 67 107 12 2 22 0 22 -5 0 -22 -157 -357
-172 -367 -29 -18 -33 2 -10 56 l22 51 -55 124 c-30 68 -55 128 -55 133 0 6 9
10 20 10 14 0 25 -12 36 -40z m-1560 -21 c8 -16 14 -34 13 -41 0 -7 -5 -2 -10
11 -5 13 -19 37 -31 55 -17 23 -18 27 -4 17 9 -8 24 -27 32 -42z m21 -106 c-3
-10 -5 -4 -5 12 0 17 2 24 5 18 2 -7 2 -21 0 -30z m-328 -37 c13 -16 5 -46
-13 -46 -7 0 -12 13 -12 30 0 33 7 38 25 16z m331 -15 c0 -17 -4 -32 -9 -35
-17 -11 -41 6 -41 28 0 27 8 36 32 36 13 0 18 -8 18 -29z m-245 -99 c17 -6 44
-13 60 -15 26 -4 25 -4 -8 -6 -41 -1 -104 26 -128 55 -12 15 -9 15 16 -2 17
-11 44 -26 60 -32z"/>
<path d="M1308 442 c-66 -34 -75 -118 -17 -166 39 -33 79 -33 117 -1 38 32 48
72 29 118 -16 38 -24 45 -67 57 -20 6 -38 3 -62 -8z"/>
</g>
</svg>
